# xmcd CD database file
#
# Track frame offsets:
#	150
#	13045
#	24677
#	41216
#	55632
#	71427
#	88743
#	108007
#	131125
#	141670
#	159154
#	173174
#	187932
#	205121
#	216461
#	228852
#	248227
#	260132
#
# Disc length: 3702 seconds
#
# Revision: 1
# Processed by: cddbd v1.5.1PL2 Copyright (c) Steve Scherf et al.
# Submitted via: cdripper 1.0.8
#
DISCID=020e7412
DTITLE=Paula MacAskill - 21 Lovely Songs (Part Of The Journey)
DYEAR=1900
DGENRE=Country
TTITLE0=Part Of The Journey
TTITLE1=A Mother's Place
TTITLE2=Good To See You
TTITLE3=A Single Yellow Rose
TTITLE4=Island Of Tiree
TTITLE5=Say You Love Me
TTITLE6=Galway Bay
TTITLE7=Medley:(A)Take These Chains (B)Have I Told You Lately (C)Have You Every Been Lonely (D)Little Old Wine Drinker Me.
TTITLE8=Ancient History
TTITLE9=Dark Island
TTITLE10=One Day At A Time
TTITLE11=It Still Takes A Woman
TTITLE12=Wind Beneath My Wings
TTITLE13=Just Out Of Reach
TTITLE14=Stop The World
TTITLE15=An Irish Harvest Day
TTITLE16=Goodbye My Friend
TTITLE17=Mother
EXTD=
EXTT0=
EXTT1=
EXTT2=
EXTT3=
EXTT4=
EXTT5=
EXTT6=
EXTT7=
EXTT8=
EXTT9=
EXTT10=
EXTT11=
EXTT12=
EXTT13=
EXTT14=
EXTT15=
EXTT16=
EXTT17=
PLAYORDER=
